<?xml version="1.0" encoding="utf-8"?>
<!-- Generator: Adobe Illustrator 19.0.0, SVG Export Plug-In . SVG Version: 6.00 Build 0)  -->
<svg version="1.1" id="圖層_1" xmlns="http://www.w3.org/2000/svg" xmlns:xlink="http://www.w3.org/1999/xlink" x="0px" y="0px"
	 viewBox="-230 225 50.4 50.4" style="enable-background:new -230 225 50.4 50.4;" xml:space="preserve">
<g>
	<circle cx="-209" cy="229.1" r="4.1"/>
	<path d="M-191.2,234h-12.9v0h-0.1h-0.2l-9.5,0c-3.1,0-5,2.5-5,5.6v13.3c0,2.6,3.4,2.6,3.4,0V240h1.1l0,33c0,1.3,1.1,2.4,2.4,2.4
		c1.3,0,2.4-1.1,2.4-2.4v-18.6h1.1l0,18.6c0,1.3,1.1,2.4,2.4,2.4c1.3,0,2.4-1.1,2.4-2.4l0-33v-1.9h12.4
		C-188.6,238.1-188.6,234-191.2,234z"/>
	<path d="M-192.9,244.4c0,0.4,0.3,0.7,0.7,0.7c0.4,0,0.7-0.3,0.7-0.7c0-0.4-0.3-0.7-0.7-0.7C-192.6,243.7-192.9,244-192.9,244.4z
		 M-194.7,239.3L-194.7,239.3C-194.6,239.3-194.6,239.3-194.7,239.3c0.1,0,0.2,0,0.2,0.1l0,3.4c0,0.2,0.1,0.3,0.3,0.3
		c0.1,0,0.2-0.1,0.3-0.2l1.5-3.1c0-0.1,0.1-0.1,0.2-0.1c0.1,0,0.1,0,0.1,0.1c0,0,7.2,8.2,0.2,26.2l2.4,5c0,0,0,0.1,0,0.2
		c0,0.2-0.2,0.4-0.4,0.4c-0.1,0-0.1,0-0.2-0.1l-3.6-2.9l-3.6,2.9c-0.1,0-0.1,0.1-0.2,0.1c-0.2,0-0.4-0.2-0.4-0.4c0-0.1,0-0.1,0-0.2
		l2.4-5C-195.4,266-202.2,248.7-194.7,239.3z"/>
</g>
</svg>
