<?xml version="1.0" encoding="utf-8"?>
<!-- Generator: Adobe Illustrator 19.0.0, SVG Export Plug-In . SVG Version: 6.00 Build 0)  -->
<svg version="1.1" id="圖層_1" xmlns="http://www.w3.org/2000/svg" xmlns:xlink="http://www.w3.org/1999/xlink" x="0px" y="0px"
	 viewBox="-205 196 100 94.2" style="enable-background:new -205 196 100 94.2;" xml:space="preserve">
<style type="text/css">
	.st0{fill:#010101;}
</style>
<g>
	<path class="st0" d="M-153,290.2h32.2v-10.7c-0.4-2-1.5-4.1-3.1-5.5c-1-0.8-9.6-6.8-10.5-7.6c-5.4-3.5-9.8-5.7-11.1-6.4
		c-0.3-0.2-0.4-0.4-0.4-0.7c0-1,0-3.6,0-6.3c1-2,1.5-4,1.8-6c0.8,0.5,2.3,0.3,3.9-5.2c1.3-4.5,0.5-6-0.5-6.3
		c3.6-16.9-4.5-17.4-4.5-17.4s-1.2-2.4-4.4-4.1c-2.1-1.3-5.2-2.3-9.1-1.8c-1.3,0-2.5,0.3-3.6,0.7l0,0c-1.5,0.5-2.8,1.2-4,2
		c-1.5,1-2.9,2.1-4.1,3.4c-2,2-3.7,4.5-4.4,7.8c-0.7,2.8-0.7,5.7,0.4,8.6c-1.5-0.2-3.2,0.7-1.6,6.3c1.2,4.1,2.3,5.3,3.1,5.4
		c0.4,2.4,1.1,5,2.5,7.4v5.4c0,0.3-0.2,0.5-0.4,0.7c-2.1,1.1-12.3,6.2-21.6,14c-1.8,1.5-2.6,3.4-2.6,5.7v10.5l10.5,0.1h14.7h6.9
		l3.2-14.5c-6.5-9,0.5-9.4,1.8-9.4l0,0l0,0c1.2,0,8.1,0.4,1.8,9.4L-153,290.2"/>
</g>
<g>
	<g>
		<polygon class="st0" points="-115.2,211.9 -134.5,198.1 -153.4,211.7 -154.8,210.5 -134.5,196 -114.2,210.5 		"/>
		<rect x="-149.4" y="210.3" class="st0" width="29.9" height="1.8"/>
		<path class="st0" d="M-131.8,230.4h-5.3v-20.1h5.3V230.4z M-135.3,228.7h1.8v-16.6h-1.8V228.7z"/>
		<path class="st0" d="M-120.4,230.4h-5.3v-20.1h5.3V230.4z M-123.9,228.7h1.8v-16.6h-1.8V228.7z"/>
		<path class="st0" d="M-148.5,213.4v-3.1h5.3v7.5l-1.8-0.7V212h-1.8v2.6L-148.5,213.4z"/>
		<path class="st0" d="M-139,235.7h24.3v1.8h-24L-139,235.7z"/>
		<path class="st0" d="M-139,232.2h20.4v1.8h-20.9L-139,232.2z"/>
	</g>
</g>
</svg>
